<?xml version="1.0" encoding="iso-8859-1"?>
<!-- Generator: Adobe Illustrator 17.1.0, SVG Export Plug-In . SVG Version: 6.00 Build 0)  -->
<!DOCTYPE svg PUBLIC "-//W3C//DTD SVG 1.1//EN" "http://www.w3.org/Graphics/SVG/1.1/DTD/svg11.dtd">
<svg version="1.1" id="Capa_1" xmlns="http://www.w3.org/2000/svg" xmlns:xlink="http://www.w3.org/1999/xlink" x="0px" y="0px"
	 viewBox="0 0 470 470" style="enable-background:new 0 0 470 470;" xml:space="preserve">
<g>
	<path d="M401.17,68.83C356.784,24.444,297.771,0,235,0S113.216,24.444,68.83,68.83C24.444,113.216,0,172.229,0,235
		s24.444,121.785,68.83,166.17C113.216,445.556,172.229,470,235,470s121.784-24.444,166.17-68.83
		C445.556,356.785,470,297.771,470,235S445.556,113.216,401.17,68.83z M235,455c-121.309,0-220-98.691-220-220
		c0-121.308,98.691-220,220-220s220,98.692,220,220C455,356.309,356.309,455,235,455z"/>
	<path d="M279.56,128.689c-4.143,0-7.5,3.358-7.5,7.5v9c0,4.142,3.357,7.5,7.5,7.5s7.5-3.358,7.5-7.5v-9
		C287.06,132.047,283.702,128.689,279.56,128.689z"/>
	<path d="M420.284,295.906h-18.086c-4.143,0-7.5,3.358-7.5,7.5v36.62c0,4.142,3.357,7.5,7.5,7.5s7.5-3.358,7.5-7.5v-29.12h10.586
		c4.143,0,7.5-3.358,7.5-7.5S424.427,295.906,420.284,295.906z"/>
	<path d="M159.256,328.117h-14.824c-0.623-30.763-25.841-55.593-56.75-55.593c-4.416,0-8.743,0.503-12.922,1.467v-11.287
		c12.236-3.309,21.268-14.502,21.268-27.77v-8.769c11.232,0.272,30.32,0.063,48.201-0.257v2.357c0,4.142,3.357,7.5,7.5,7.5
		s7.5-3.358,7.5-7.5v-9.984c0-0.025,0-99.205,0-99.205c10.51-5.949,17.271-17.247,17.271-29.566
		c0-18.715-15.226-33.941-33.941-33.941h-4.663c-4.143,0-7.5,3.358-7.5,7.5s3.357,7.5,7.5,7.5h4.663
		c10.444,0,18.941,8.497,18.941,18.941c0,7.893-4.972,15.035-12.373,17.771c-2.943,1.089-4.898,3.896-4.898,7.034v96.588
		c-24.909,0.432-50.294,0.558-54.097,0.035c-2.168-0.474-4.439,0.034-6.199,1.399c-1.833,1.421-2.905,3.609-2.905,5.928v16.669
		c0,7.591-6.176,13.768-13.768,13.768s-13.768-6.176-13.768-13.768v-57.287c0-4.142-3.357-7.5-7.5-7.5s-7.5,3.358-7.5,7.5v57.287
		c0,13.268,9.031,24.461,21.268,27.77v17.115c-6.664,3.77-12.585,8.917-17.388,15.271c-2.497,3.304-1.843,8.008,1.461,10.505
		c3.304,2.497,8.008,1.843,10.506-1.461c7.979-10.556,20.131-16.61,33.343-16.61c23.027,0,41.762,18.734,41.762,41.762v6.331
		c0,4.142,3.357,7.5,7.5,7.5h22.313c14.287,0,25.911,11.624,25.911,25.912c0,12.196-8.647,22.86-20.563,25.357
		c-3.474,0.728-5.962,3.791-5.962,7.34v18.39c0,4.142,3.357,7.5,7.5,7.5s7.5-3.358,7.5-7.5V407.33
		c15.679-5.908,26.524-21.146,26.524-38.301C200.167,346.47,181.814,328.117,159.256,328.117z"/>
	<path d="M235,80c23.607,0,45.807-11.551,59.384-30.899c2.379-3.391,1.559-8.068-1.832-10.447c-3.393-2.38-8.068-1.558-10.447,1.832
		C271.333,55.835,253.724,65,235,65c-18.723,0-36.332-9.164-47.104-24.513c-2.378-3.39-7.055-4.212-10.447-1.831
		c-3.391,2.379-4.21,7.057-1.83,10.447C189.195,68.45,211.395,80,235,80z"/>
	<path d="M113.043,247.409v2.964c0,4.142,3.357,7.5,7.5,7.5s7.5-3.358,7.5-7.5v-2.964c0-4.142-3.357-7.5-7.5-7.5
		S113.043,243.267,113.043,247.409z"/>
	<path d="M426.483,269.834v-30.323c0-4.142-3.357-7.5-7.5-7.5c-14.544,0-27.775-8.593-33.708-21.891
		c-1.206-2.704-3.89-4.444-6.85-4.444l-74.265,0.002c-2.659,0-5.12,1.408-6.467,3.701c-3.248,5.529-9.243,8.964-15.646,8.964
		c-9.996,0-18.128-8.132-18.128-18.128v-12.162h43.756c4.143,0,7.5-3.358,7.5-7.5v-24.698c0-7.116,5.997-14.396,12.966-15.891
		h41.788c4.143,0,7.5-3.358,7.5-7.5v-24.852h1.701c4.143,0,7.5-3.358,7.5-7.5s-3.357-7.5-7.5-7.5h-29.201
		c-4.143,0-7.5,3.358-7.5,7.5s3.357,7.5,7.5,7.5h12.5v17.352h-34.992c-0.42,0-0.839,0.035-1.253,0.105
		c-14.584,2.471-26.009,15.993-26.009,30.786v17.198h-43.756c-4.143,0-7.5,3.358-7.5,7.5v19.662
		c0,18.267,14.861,33.128,33.128,33.128c10.192,0,19.818-4.762,26.05-12.665l65.722-0.002c7.915,13.968,21.877,23.479,37.663,25.79
		v15.868h-87.545c-6.889-11.42-19.312-18.565-32.885-18.565c-16.613,0-31.106,10.535-36.353,26.004
		c-15.984,9.509-25.78,26.597-25.78,45.355c0,29.111,23.684,52.794,52.794,52.794h5.443v21.954c0,12.255,3.377,24.156,9.765,34.417
		c1.422,2.283,3.869,3.537,6.374,3.537c1.354,0,2.724-0.366,3.957-1.134c3.517-2.189,4.592-6.814,2.403-10.331
		c-4.906-7.879-7.499-17.039-7.499-26.489v-29.454c0-4.142-3.357-7.5-7.5-7.5h-12.943c-20.84,0-37.794-16.954-37.794-37.794
		c0-14.222,7.871-27.106,20.543-33.623c1.935-0.995,3.342-2.781,3.856-4.895c2.559-10.505,11.906-17.842,22.733-17.842
		c9.312,0,17.735,5.52,21.461,14.063c1.192,2.734,3.892,4.502,6.875,4.502h99.594C423.126,277.334,426.483,273.977,426.483,269.834z
		"/>
</g>
<g>
</g>
<g>
</g>
<g>
</g>
<g>
</g>
<g>
</g>
<g>
</g>
<g>
</g>
<g>
</g>
<g>
</g>
<g>
</g>
<g>
</g>
<g>
</g>
<g>
</g>
<g>
</g>
<g>
</g>
</svg>
